<?xml version="1.0" standalone="no"?>
<!DOCTYPE svg PUBLIC "-//W3C//DTD SVG 20010904//EN"
 "http://www.w3.org/TR/2001/REC-SVG-20010904/DTD/svg10.dtd">
<svg version="1.0" xmlns="http://www.w3.org/2000/svg"
 width="198.000000pt" height="198.000000pt" viewBox="0 0 198.000000 198.000000"
 preserveAspectRatio="xMidYMid meet">
<metadata>
Created by potrace 1.10, written by Peter Selinger 2001-2011
</metadata>
<g transform="translate(0.000000,198.000000) scale(0.100000,-0.100000)"
fill="#ffffff" stroke="none">
<path d="M936 1311 c-33 -13 -36 -42 -7 -69 14 -14 25 -29 23 -36 -1 -6 6 -1
17 11 10 12 21 19 25 16 3 -4 6 1 6 10 0 10 5 17 10 17 6 0 5 9 -2 23 -7 12
-13 23 -13 23 0 7 -44 11 -59 5z m-9 -33 c-3 -8 -6 -5 -6 6 -1 11 2 17 5 13 3
-3 4 -12 1 -19z m57 -3 c6 -18 -29 -41 -39 -25 -7 11 12 40 25 40 4 0 10 -7
14 -15z"/>
<path d="M1036 1301 c-4 -5 3 -7 14 -4 23 6 26 13 6 13 -8 0 -17 -4 -20 -9z"/>
<path d="M807 1272 c-15 -15 -27 -32 -27 -36 0 -5 9 3 21 18 11 14 27 26 35
26 8 0 14 5 14 10 0 17 -15 11 -43 -18z"/>
<path d="M868 1293 c7 -3 16 -2 19 1 4 3 -2 6 -13 5 -11 0 -14 -3 -6 -6z"/>
<path d="M1065 1260 c-3 -5 -15 -10 -26 -10 -13 0 -19 -6 -17 -17 2 -12 -5
-19 -21 -21 -18 -3 -22 -8 -18 -28 2 -14 2 -22 -1 -20 -2 3 -12 -4 -22 -16
-17 -21 -17 -21 -23 21 -6 51 -9 55 -36 46 -17 -5 -20 -12 -15 -33 8 -33 22
-52 39 -52 19 0 35 -53 23 -75 -8 -13 -8 -16 2 -10 17 10 4 -46 -13 -58 -8 -6
-5 -7 6 -3 10 3 42 7 70 7 31 1 40 4 24 6 -19 3 -27 9 -23 18 3 8 0 17 -6 21
-6 4 -8 3 -5 -2 3 -6 1 -16 -4 -24 -8 -13 -10 -13 -18 0 -5 8 -8 17 -5 21 2 4
0 10 -6 14 -6 4 -8 10 -5 15 3 5 1 20 -5 35 -13 35 3 57 36 49 14 -4 24 -2 24
4 0 6 3 17 6 25 3 10 -2 17 -13 20 -14 4 -12 5 6 6 19 1 22 -3 18 -19 -3 -13
2 -28 16 -40 23 -22 37 -26 37 -10 0 16 22 12 36 -7 19 -25 17 -33 -6 -33 -11
0 -20 -7 -20 -15 0 -19 14 -19 29 -1 15 18 58 17 66 -1 3 -10 1 -13 -8 -10 -7
3 -21 -1 -32 -9 -16 -12 -16 -14 -3 -14 11 0 16 -8 15 -20 -1 -11 -7 -20 -15
-20 -7 0 -10 4 -7 10 4 7 -2 7 -19 0 -17 -6 -27 -6 -32 1 -3 6 4 13 16 16 16
4 18 8 9 14 -8 4 -18 1 -25 -9 -12 -16 -13 -16 -19 1 -9 21 -45 23 -45 1 0 -8
4 -13 10 -9 5 3 18 -3 28 -13 15 -15 39 -21 108 -25 49 -3 71 -2 49 1 -34 6
-40 11 -43 35 -2 20 1 27 13 27 11 0 15 7 13 23 -2 16 -11 23 -30 25 -24 3
-28 8 -28 33 0 17 -4 28 -9 25 -14 -9 -20 31 -11 64 8 27 6 30 -16 30 -13 0
-24 5 -24 10 0 6 -4 10 -9 10 -6 0 -13 -4 -16 -10z m39 -55 c8 -22 -23 -48
-40 -34 -17 14 -18 31 -3 46 14 14 35 7 43 -12z m15 -49 c-2 -2 -15 -7 -29
-10 l-25 -7 25 15 c21 12 42 14 29 2z"/>
<path d="M742 1198 c-15 -15 -15 -51 0 -66 19 -19 56 -14 68 9 23 41 -35 90
-68 57z m40 -17 c-11 -6 -10 -10 3 -15 14 -5 15 -9 5 -21 -7 -8 -17 -12 -22
-9 -6 4 -5 10 3 15 10 6 11 9 2 9 -7 0 -13 7 -13 15 0 8 8 15 18 15 13 0 14
-2 4 -9z"/>
<path d="M1142 1197 c-9 -11 -10 -17 -2 -22 15 -9 23 -1 18 21 -3 15 -4 16
-16 1z"/>
<path d="M1179 1208 c0 -2 -2 -15 -4 -30 -3 -25 -2 -26 26 -18 16 5 33 9 37 9
4 1 7 9 7 19 0 12 -9 18 -32 20 -18 2 -33 2 -34 0z"/>
<path d="M828 1195 c-9 -9 4 -55 16 -55 6 -1 -8 -10 -31 -21 -48 -22 -54 -42
-23 -82 30 -38 25 -47 -27 -47 -25 0 -44 -3 -41 -6 3 -3 49 -2 101 2 l95 7 6
30 c3 16 2 35 -3 41 -5 6 -11 22 -13 35 -4 31 -28 40 -28 11 0 -13 -4 -18 -11
-14 -14 8 20 -59 35 -68 6 -5 -5 -5 -24 -2 -77 12 -80 14 -80 38 0 14 -6 27
-12 30 -7 3 4 5 25 3 28 -2 36 0 32 10 -2 8 -1 11 5 8 11 -7 30 26 30 53 0 23
-37 42 -52 27z m72 -120 c0 -8 -2 -15 -4 -15 -2 0 -6 7 -10 15 -3 8 -1 15 4
15 6 0 10 -7 10 -15z"/>
<path d="M1160 1136 c0 -2 8 -10 18 -17 15 -13 16 -12 3 4 -13 16 -21 21 -21
13z"/>
<path d="M1007 1113 c-9 -9 -9 -63 1 -63 4 0 7 16 7 35 0 19 0 35 -1 35 0 0
-4 -3 -7 -7z"/>
<path d="M1040 1112 c0 -7 10 -23 21 -35 19 -19 20 -20 11 -2 -22 39 -32 51
-32 37z"/>
<path d="M334 827 c-3 -8 -4 -47 -2 -88 l3 -74 50 0 50 0 3 48 c3 44 2 47 -22
47 -28 0 -45 -18 -26 -30 14 -9 10 -41 -5 -41 -14 1 -19 111 -5 125 8 8 12 4
16 -12 4 -13 14 -22 26 -22 15 0 19 6 16 28 -3 25 -7 27 -51 30 -33 2 -49 -1
-53 -11z"/>
<path d="M495 828 c-2 -7 -9 -38 -15 -68 -6 -30 -13 -65 -16 -77 -5 -19 -2
-23 15 -23 12 0 21 6 21 15 0 9 9 15 25 15 16 0 25 -6 25 -15 0 -8 9 -15 20
-15 23 0 24 8 10 59 -5 20 -14 55 -20 79 -9 35 -15 42 -36 42 -13 0 -26 -6
-29 -12z m39 -70 c6 -31 4 -38 -9 -38 -17 0 -18 4 -9 49 8 38 9 37 18 -11z"/>
<path d="M610 750 c0 -87 1 -90 23 -90 20 0 23 4 19 35 -5 44 12 46 24 3 7
-23 17 -34 32 -36 25 -4 27 3 8 37 -12 21 -12 27 0 39 17 17 18 74 2 90 -7 7
-34 12 -60 12 l-48 0 0 -90z m78 33 c-2 -17 -9 -28 -18 -28 -9 0 -16 11 -18
28 -3 22 1 27 18 27 17 0 21 -5 18 -27z"/>
<path d="M764 750 c19 -85 21 -90 46 -90 24 0 27 5 43 83 21 101 21 97 -2 97
-15 0 -21 -10 -26 -52 -4 -29 -11 -62 -16 -73 -6 -16 -8 -13 -8 15 -2 78 -12
110 -36 110 l-22 0 21 -90z"/>
<path d="M965 763 c-10 -43 -20 -84 -22 -90 -3 -8 3 -13 15 -13 11 0 22 7 26
15 3 8 14 15 25 15 10 0 21 -7 25 -15 3 -8 14 -15 24 -15 18 0 18 2 -1 90 -19
86 -22 90 -47 90 -25 0 -27 -5 -45 -77z m57 -8 c3 -27 0 -35 -12 -35 -12 0
-15 9 -12 40 5 47 18 45 24 -5z"/>
<path d="M1100 750 c0 -82 2 -90 19 -90 17 0 19 6 14 55 -3 30 -3 55 0 55 3 0
14 -25 23 -55 13 -40 23 -55 36 -55 16 0 18 10 18 90 0 82 -2 90 -19 90 -21 0
-21 0 -6 -105 l4 -30 -13 25 c-8 14 -20 44 -27 68 -8 30 -18 42 -31 42 -16 0
-18 -9 -18 -90z"/>
<path d="M1253 750 c-19 -88 -19 -90 -1 -90 10 0 21 7 24 15 4 8 15 15 25 15
11 0 22 -7 25 -15 4 -8 15 -15 26 -15 12 0 18 5 15 13 -2 6 -12 47 -22 90 -18
72 -20 77 -45 77 -25 0 -28 -4 -47 -90z m59 10 c3 -31 0 -40 -12 -40 -12 0
-15 9 -12 40 2 22 8 40 12 40 4 0 10 -18 12 -40z"/>
<path d="M1390 750 c0 -85 1 -90 21 -90 20 0 21 4 14 55 -3 30 -4 55 -1 55 3
0 13 -25 22 -55 14 -43 22 -55 38 -55 20 0 21 6 21 90 0 84 -1 90 -20 90 -18
0 -20 -5 -17 -39 7 -70 -3 -79 -21 -18 -14 44 -22 57 -37 57 -18 0 -20 -7 -20
-90z"/>
<path d="M1540 750 l0 -91 53 3 52 3 0 85 0 85 -52 3 -53 3 0 -91z m70 -1 c0
-46 -3 -59 -15 -59 -12 0 -15 14 -15 65 0 53 3 63 15 59 11 -5 15 -22 15 -65z"/>
</g>
</svg>
